<svg width="542" height="247" viewBox="0 0 542 247" fill="none" xmlns="http://www.w3.org/2000/svg">
<path d="M382.99 122.23V0" stroke="#EDCF75" stroke-width="2.0717"/>
<path d="M250.235 246.532V101.513" stroke="white" stroke-width="2.0717"/>
<path d="M0.761229 92.5215L135.422 92.5215" stroke="#E68629" stroke-width="2.0717"/>
<path d="M406.814 154.26L541.475 154.26" stroke="#E68629" stroke-width="2.0717"/>
<path d="M168.808 155.287L209.099 87.0117L249.214 155.333V90.0198L281.403 114.996L281.3 91.5695H313.022V155.378L248.944 155.332L184.866 155.287L201.648 128.015L199.884 126.93L182.433 155.287H168.808Z" fill="#1F2D56"/>
<path d="M166.546 123.383V155.287H134.642V123.383L116.775 91.4783H149.468L149.467 109.708L151.539 109.708L151.54 91.4783H184.412L166.546 123.383Z" fill="#E68629"/>
<path d="M387.916 91.4783H421.096V155.287H387.916V91.4783Z" fill="#E68629"/>
<path d="M350.39 89.0171C368.985 89.0171 384.026 104.058 384.026 122.653C384.026 130.857 381.018 138.423 376.187 144.257L367.071 135.324L365.157 137.238L384.026 155.743V156.289H350.39C331.885 156.289 316.754 141.067 316.754 122.653C316.754 104.058 331.794 89.0171 350.39 89.0171Z" fill="#EDCF75"/>
<path d="M249.214 90.0198L281.403 114.996L281.3 91.5695H313.022V155.378C249.214 155.333 308.009 155.333 249.214 155.333V90.0198Z" fill="white"/>
</svg>
